<?xml version="1.0" encoding="utf-8"?>
<!-- Generator: Adobe Illustrator 25.4.1, SVG Export Plug-In . SVG Version: 6.00 Build 0)  -->
<svg version="1.1" id="Calque_1" xmlns="http://www.w3.org/2000/svg" xmlns:xlink="http://www.w3.org/1999/xlink" x="0px" y="0px"
	 viewBox="0 0 800.9 405.3" style="enable-background:new 0 0 800.9 405.3;" xml:space="preserve">
<style type="text/css">
	.st0{clip-path:url(#SVGID_00000026131811490293826920000003466150259947010716_);}
	.st1{clip-path:url(#SVGID_00000050636942448587723030000010219601013389277623_);}
	.st2{fill:#191415;}
	.st3{fill:none;}
</style>
<g>
	<defs>
		<rect id="SVGID_1_" x="-1.1" y="67.7" width="859" height="257.6"/>
	</defs>
	<clipPath id="SVGID_00000036240194259924560220000014959160651657985727_">
		<use xlink:href="#SVGID_1_"  style="overflow:visible;"/>
	</clipPath>
	<g style="clip-path:url(#SVGID_00000036240194259924560220000014959160651657985727_);">
		<g>
			<defs>
				<rect id="SVGID_00000127003113257113012610000011967091661071674287_" x="35.9" y="89.9" width="785.1" height="235.5"/>
			</defs>
			<clipPath id="SVGID_00000134248024217409583190000005184913444064152489_">
				<use xlink:href="#SVGID_00000127003113257113012610000011967091661071674287_"  style="overflow:visible;"/>
			</clipPath>
			<g style="clip-path:url(#SVGID_00000134248024217409583190000005184913444064152489_);">
				<path class="st2" d="M357.3,198.7c-20-4.8-23.5-8.1-23.5-15.2c0-6.6,6.3-11.1,15.6-11.1c9,0,18,3.4,27.4,10.4
					c0.3,0.2,0.6,0.3,1,0.2c0.3-0.1,0.7-0.2,0.9-0.5l9.8-13.8c0.4-0.6,0.3-1.3-0.3-1.8c-10.8-8.8-24.5-13.6-38.4-13.3
					c-21.6,0-36.7,13-36.7,31.5c0,19.9,13,27,35.6,32.4c19.1,4.4,22.4,8.1,22.4,14.7c0,7.3-6.5,11.9-17.1,11.9
					c-11.7,0-21.2-3.9-31.8-13.2c-0.3-0.2-0.6-0.3-0.9-0.3c-0.4,0-0.7,0.2-0.9,0.5l-11,13c-0.5,0.5-0.4,1.4,0.1,1.8
					c12.1,10.9,27.8,17,44.1,16.9c23.3,0,38.4-12.7,38.4-32.4c0-16.6-9.9-25.9-34.3-31.8"/>
				<path class="st2" d="M444.4,178.9c-10.1,0-18.4,4-25.2,12.1v-9.1c0-0.7-0.6-1.3-1.3-1.3h-17.9c-0.7,0-1.3,0.6-1.3,1.3v101.9
					c0,0.7,0.6,1.3,1.3,1.3h17.9c0.7,0,1.3-0.6,1.3-1.3v-32.2c6.3,7.4,15.5,11.6,25.2,11.4c18.8,0,37.8-14.4,37.8-42
					S463.1,179,444.4,178.9 M461.3,221c0,14.1-8.7,23.9-21,23.9c-12.4,0-21.5-10.3-21.5-23.9s9.3-23.9,21.5-23.9
					S461.3,207.2,461.3,221"/>
				<path class="st2" d="M530.8,178.9c-24.2,0-43.1,18.6-43.1,42.4c0,23.5,18.8,41.9,42.8,41.9c24.2,0,43.2-18.5,43.2-42.2
					S554.9,179,530.8,178.9 M530.8,245c-12.9,0-22.5-10.3-22.5-24s9.3-23.8,22.2-23.8s22.8,10.3,22.8,24S543.8,245.1,530.8,245"/>
				<path class="st2" d="M625.3,180.6h-19.7v-20.2c0-0.7-0.6-1.3-1.3-1.4h-17.9c-0.8,0-1.4,0.6-1.4,1.4c0,0,0,0,0,0v20.2h-8.6
					c-0.7,0-1.3,0.6-1.3,1.3v15.4c0,0.7,0.6,1.3,1.3,1.3h8.6v39.9c0,16.1,8,24.3,23.8,24.3c5.9,0.1,11.7-1.3,16.8-4.2
					c0.4-0.2,0.7-0.7,0.7-1.1v-14.7c0-0.7-0.6-1.3-1.3-1.3c-0.2,0-0.4,0-0.6,0.1c-3.2,1.7-6.9,2.6-10.5,2.5c-5.8,0-8.3-2.6-8.3-8.5
					v-37.1h19.7c0.7,0,1.3-0.6,1.3-1.3v-15.4C626.6,181.2,626,180.6,625.3,180.6C625.3,180.6,625.3,180.6,625.3,180.6L625.3,180.6"
					/>
				<path class="st2" d="M624.8,180.6l0.3,18h16.8l25.6,61.5c-2.9,6.5-5.8,7.7-9.7,7.7c-3.5-0.1-6.9-1-9.9-2.7
					c-0.3-0.2-0.7-0.2-1-0.1c-0.4,0.1-0.6,0.4-0.8,0.7l-6,13.3c-0.3,0.6,0,1.4,0.6,1.7c5.8,3.3,12.5,5,19.2,4.9
					c13.2,0,20.6-6.2,27-22.7l31.1-80.4c0.1-0.4,0.1-0.9-0.1-1.2c-0.3-0.3-0.7-0.6-1.1-0.6H698c-0.6,0-1.1,0.4-1.2,0.9l-19.1,54.6
					l-20.9-54.7c-0.2-0.5-0.7-0.8-1.2-0.8L624.8,180.6z"/>
				<path class="st2" d="M733.2,205.8c-7,0-12.6-5.7-12.6-12.7c0-7,5.7-12.6,12.7-12.6c7,0,12.6,5.6,12.6,12.6
					C745.9,200.1,740.2,205.8,733.2,205.8C733.2,205.8,733.2,205.8,733.2,205.8 M733.3,181.7c-6.3-0.1-11.4,5-11.5,11.3
					s5,11.4,11.3,11.5c6.3,0.1,11.4-5,11.5-11.3v-0.2C744.6,186.9,739.6,181.8,733.3,181.7C733.3,181.7,733.3,181.7,733.3,181.7
					L733.3,181.7 M736,194.3l3.6,5h-3l-3.2-4.7h-2.7v4.6h-2.5V186h5.9c3.1,0,5.1,1.6,5.1,4.2c0.1,1.9-1.2,3.6-3.1,4 M734,188.3h-3.3
					v4.2h3.3c1.6,0,2.6-0.8,2.6-2.1S735.7,188.3,734,188.3"/>
				<path class="st3" d="M243.8,171.5c-44.9-26.6-115.8-29.2-158.3-16.2c-6.1,1.7-9.3,8.1-7.5,14.2c1.7,6.1,8.1,9.3,14.2,7.5
					c37-11.3,101.3-9,140.1,13.9l0,0c5.5,3.2,12.2,1.4,15.3-4.1C251.1,181.7,249.3,174.7,243.8,171.5z"/>
				<path class="st3" d="M227.9,212c-37-22.9-91.5-29.2-135.5-15.9c-0.3,0-0.3,0-0.6,0.3c-4.9,1.7-7.5,6.9-5.8,11.9
					s6.9,7.5,11.9,5.8c38.5-11.6,87.7-5.8,120.1,14.2l0,0c4.3,2.6,10.1,1.4,13-3.2l0,0l0,0C234,220.7,232.6,214.9,227.9,212z"/>
				<path d="M163.7,104.6c-57.6,0-104.5,46.9-104.5,104.5S106,313.6,163.7,313.6s104.5-46.9,104.5-104.5l0,0
					C268.1,151.5,221.3,104.6,163.7,104.6z M202.2,247.9c-0.3,0.3-0.3,0.5,0,0.5l-16.8-1.8c0-0.3,0-0.5-0.3-0.8
					c0-0.3-0.5-0.8-1.5-1.8c-0.8-0.8-2-1.5-3.5-2.3s-3.8-1.5-7-2.3c-3.3-0.8-7-1.3-11.3-1.8c-7.5-0.8-13.8-0.8-18.8,0
					c-5,0.8-7.8,2-8.3,3.5c-0.5,1.3,0.5,2.5,2.8,3.5c2.3,1,5.5,1.8,9.3,2.5c4,0.8,8.3,1.5,13.3,2.3c4.8,0.8,9.5,1.8,14.3,2.8
					c4.8,1,9,2.3,12.8,3.5c3.8,1.5,6.5,3.3,8.3,5.5c1.8,2.3,2.3,4.8,1.3,7.8c-1,3-3.3,5.3-6.3,7.3c-3.3,2-7,3.3-11.8,4
					c-4.5,0.8-9.3,1-14.3,1.3c-5,0-10.3-0.3-15.8-0.8c-5.8-0.5-11-1.5-15.8-2.5c-4.8-0.5-8.5-1.8-11.3-3c-2.8-1.3-5-2.5-7-4
					c-2-1.5-3.3-2.8-4-4c-0.8-1.3-1.5-2.5-1.8-3.5c-0.3-1.3-0.5-2-0.5-2.5s0-1,0.3-1l16.8,1.8c0,0.3-0.3,0.5-0.3,1s0.3,1.3,1,2.3
					c0.8,1,2,2,3.5,3c1.5,1,4.3,1.8,8,2.8c3.8,1,8.3,1.8,13.5,2.3c7.8,0.8,14,0.8,19.3,0c5.3-0.8,8.3-2.3,9.3-5
					c0.8-1.8-0.5-3.5-3.8-4.8c-3-1.3-7-2.5-12-3.3c-5-0.8-10.5-1.8-16.3-2.8c-5.8-1-11.3-2.3-16-3.5s-8.8-3-11.5-5.3
					c-2.8-2.3-3.5-5-2.5-8c1.8-4.8,6.8-8,15-10c8.3-1.8,18.8-2,31.6-0.8c4.5,0.5,8.5,1,12,1.8c3.8,0.8,6.8,1.5,9.3,2.3
					c2.5,0.8,4.8,1.8,6.8,2.5c2,1,3.5,1.8,4.5,2.8c1,1,2,1.8,3,2.8c0.8,1,1.5,1.8,1.5,2.5c0.3,0.8,0.3,1.5,0.8,2
					C202.2,247.2,202.5,247.4,202.2,247.9z M224.3,226.9c-2.3,3.8-7.3,5-11.3,2.8l0,0c-28.1-17.3-70.9-22.3-104-12.3
					c-4.3,1.5-8.8-0.8-10.3-5s0.8-8.8,5-10.3c0.3,0,0.3,0,0.5-0.3c37.8-11.5,85.2-6,117.3,13.8C225.5,218.1,226.8,223.1,224.3,226.9
					L224.3,226.9L224.3,226.9z M238.8,193.8c-2.8,4.8-8.8,6.3-13.3,3.5l0,0c-33.6-20-89.2-21.8-121.3-12c-5.3,1.5-10.5-1.3-12.3-6.5
					c-1.5-5.3,1.3-10.5,6.5-12.3c36.8-11.3,98.2-9,137.1,14C240.1,183.3,241.6,189.3,238.8,193.8z"/>
			</g>
		</g>
	</g>
</g>
</svg>
